<svg xmlns="http://www.w3.org/2000/svg" viewBox="0 0 512 512" role="img" aria-label="NoteStream">
  <title>NoteStream</title>
  <defs>
    <style>
      .section-mark { fill: #1f3aa8; }
      @media (prefers-color-scheme: dark) {
        .section-mark { fill: #7d92d8; }
      }
    </style>
  </defs>
  <path class="section-mark" transform="translate(165.700 56.000) scale(0.40486 -0.40486) translate(-36.500 -760.000)" d="M219 -228Q166 -228 126.0 -209.5Q86 -191 64.5 -162.5Q43 -134 44 -104Q45 -84 56.5 -68.0Q68 -52 90 -52Q105 -52 113.5 -58.5Q122 -65 126.0 -74.0Q130 -83 130 -93Q130 -113 118 -127Q118 -143 132.5 -157.5Q147 -172 170.5 -180.5Q194 -189 219 -189Q266 -189 293.0 -174.5Q320 -160 333.5 -138.5Q347 -117 350 -95Q355 -67 347.5 -44.5Q340 -22 323.0 -3.0Q306 16 280.0 34.5Q254 53 221 74Q187 96 153.0 118.5Q119 141 91.5 168.0Q64 195 49.0 229.0Q34 263 37 306Q39 347 64.0 393.0Q89 439 132 475Q115 497 105.5 524.5Q96 552 98 587Q100 611 111.5 640.5Q123 670 146.5 697.5Q170 725 207.5 742.5Q245 760 298 760Q352 760 391.5 741.5Q431 723 453.0 695.0Q475 667 473 636Q472 617 461.0 601.0Q450 585 427 585Q413 585 404.0 591.0Q395 597 391.0 606.5Q387 616 387 626Q387 636 391.0 644.5Q395 653 399 660Q400 676 385.5 690.0Q371 704 347.5 713.0Q324 722 298 722Q253 722 224.5 705.0Q196 688 182.5 664.0Q169 640 167 618Q165 587 177.0 562.0Q189 537 211.0 516.5Q233 496 261.5 477.5Q290 459 320 441Q362 416 400.5 387.0Q439 358 462.5 319.5Q486 281 482 227Q481 199 468.5 168.5Q456 138 434.5 109.5Q413 81 382 58Q402 36 412.0 7.5Q422 -21 419 -58Q418 -82 406.5 -111.0Q395 -140 371.0 -167.0Q347 -194 309.5 -211.0Q272 -228 219 -228ZM362 80Q382 102 393.0 131.5Q404 161 406 190Q409 233 393.0 264.0Q377 295 348.5 319.0Q320 343 285.5 363.5Q251 384 216.5 405.0Q182 426 154 452Q135 429 125.0 399.0Q115 369 113 343Q110 300 125.5 269.0Q141 238 169.5 213.5Q198 189 232.0 168.5Q266 148 300.5 127.0Q335 106 362 80Z"/>
</svg>
